<?xml version="1.0" encoding="utf-8"?>
<!-- Generator: Adobe Illustrator 21.0.0, SVG Export Plug-In . SVG Version: 6.00 Build 0)  -->
<svg version="1.1"
	 id="svg2" xmlns:cc="http://creativecommons.org/ns#" xmlns:dc="http://purl.org/dc/elements/1.1/" xmlns:rdf="http://www.w3.org/1999/02/22-rdf-syntax-ns#" xmlns:svg="http://www.w3.org/2000/svg"
	 xmlns="http://www.w3.org/2000/svg" xmlns:xlink="http://www.w3.org/1999/xlink" x="0px" y="0px" viewBox="0 0 449 135.1"
	 style="enable-background:new 0 0 449 135.1;" xml:space="preserve">
<style type="text/css">
	.st0{fill:#243356;}
	.st1{fill:#426FD9;}
	.st2{fill:#FFFFFF;}
</style>
<polygon class="st0" points="164.3,45.7 172.1,45.7 172.1,82.7 195.2,82.7 195.2,89.7 164.3,89.7 "/>
<rect x="202.2" y="45.7" class="st0" width="7.7" height="44"/>
<polygon class="st0" points="216.3,45.7 224.9,45.7 238.2,79.5 251.4,45.7 259.7,45.7 241.4,90 234.6,90 "/>
<polygon class="st0" points="265.7,45.7 298.4,45.7 298.4,52.6 273.5,52.6 273.5,64 295.5,64 295.5,71 273.5,71 273.5,82.8 
	298.7,82.8 298.7,89.7 265.7,89.7 "/>
<polygon class="st1" points="303.4,45.7 307.1,45.7 324.3,86.2 341.6,45.7 345.1,45.7 325.7,90 322.8,90 "/>
<path class="st1" d="M348.3,67.8v-0.1c0-12,8.9-22.8,22.2-22.8c13.3,0,22.1,10.6,22.1,22.7c0.1,0.1,0.1,0.1,0,0.1
	c0,12-8.9,22.8-22.2,22.8C357.1,90.5,348.3,79.8,348.3,67.8 M389.2,67.8v-0.1c0-10.9-7.9-19.8-18.8-19.8c-10.9,0-18.7,8.8-18.7,19.7
	v0.1c0,10.9,7.9,19.8,18.8,19.8C381.4,87.5,389.2,78.7,389.2,67.8"/>
<polygon class="st1" points="413.3,67.2 396.3,45.7 400.2,45.7 415.3,65 430.3,45.7 434.1,45.7 417.2,67.2 434.7,89.7 430.8,89.7 
	415.1,69.4 399.5,89.7 395.7,89.7 "/>
<path class="st1" d="M131.6,67.7c0,33.9-27.5,61.3-61.3,61.3S9,101.5,9,67.7C9,33.8,36.5,6.4,70.3,6.4S131.6,33.8,131.6,67.7"/>
<path class="st2" d="M104.9,100c-2.3-3.4-8.5-17.6-37.4-17.2c-27.2,0.3-30.6-0.6-33.2-1.5c0,0,6.7,16.4,35.3,16
	C100.7,96.8,104.9,100,104.9,100"/>
<path class="st2" d="M102.7,75.1C100.6,72,95,59.1,68.5,59.4c-24.8,0.3-27.9-0.5-30.3-1.4c0,0,6.1,15,32.3,14.6
	C98.9,72.2,102.7,75.1,102.7,75.1"/>
<path class="st2" d="M97,51.6c-1.7-2.5-6.2-12.8-27.3-12.6c-19.9,0.3-22.3-0.4-24.2-1.1c0,0,4.9,12,25.8,11.7
	C94,49.2,97,51.6,97,51.6"/>
</svg>
